Coordinates
version=1
nRows=16
nColumns=40
inDegrees=yes

Units are S.I. units (second, meters, Newtons, ...)
Angles are in degrees.

endheader
time	pelvis_tilt	pelvis_list	pelvis_rotation	pelvis_tx	pelvis_ty	pelvis_tz	hip_flexion_r	hip_adduction_r	hip_rotation_r	knee_angle_r	knee_angle_r_beta	ankle_angle_r	subtalar_angle_r	mtp_angle_r	hip_flexion_l	hip_adduction_l	hip_rotation_l	knee_angle_l	knee_angle_l_beta	ankle_angle_l	subtalar_angle_l	mtp_angle_l	lumbar_extension	lumbar_bending	lumbar_rotation	arm_flex_r	arm_add_r	arm_rot_r	elbow_flex_r	pro_sup_r	wrist_flex_r	wrist_dev_r	arm_flex_l	arm_add_l	arm_rot_l	elbow_flex_l	pro_sup_l	wrist_flex_l	wrist_dev_l
     33.67250000	     -6.55886996	     -5.63894544	      2.77975402	      0.82659997	      0.91079310	      0.42883722	     -0.36697061	      2.53281807	     -9.90898959	     20.76357409	     20.76357409	     19.27102248	      2.81513653	     -5.86338810	     32.12019322	     -6.21988057	      4.83650851	     30.25808421	     30.25808421	      7.25752324	    -15.46659097	      5.91557843	    -10.00588316	      2.80750515	      4.60375370	     44.56347214	    -10.78916161	      2.22005270	    105.29983783	     44.30554702	      0.00000000	      0.00000000	     -6.96060009	    -10.59731019	     -3.42559782	     40.71624771	     46.00377575	      0.00000000	      0.00000000
     33.68971429	     -6.63907050	     -5.66593862	      2.42061422	      0.82945726	      0.91157055	      0.42596200	     -0.72165950	      2.17721968	    -10.02347835	     20.88630128	     20.88630128	     18.74588580	      3.63154067	     -6.45745522	     31.71880856	     -6.13408819	      4.80677269	     30.59489153	     30.59489153	      7.90781960	    -15.83877474	      6.30419165	     -9.91449106	      2.82724955	      5.01150890	     43.92629188	    -11.12333576	      2.35779902	    103.74079173	     44.36397972	      0.00000000	      0.00000000	     -6.50823985	    -10.65513157	     -3.86252472	     41.79987341	     46.07261709	      0.00000000	      0.00000000
     33.70692857	     -6.80581671	     -5.63422960	      2.10644865	      0.83217860	      0.91224380	      0.42293163	     -0.97452970	      1.67159090	    -10.51103844	     20.99392133	     20.99392133	     17.92999625	      4.83915212	     -8.04332539	     31.37333559	     -5.95520079	      4.74440145	     30.85216300	     30.85216300	      8.75875598	    -16.13978460	      7.41835290	     -9.74583338	      2.80749485	      4.72851924	     43.63320998	    -10.75356099	      2.78421652	    101.40527054	     44.46037452	      0.00000000	      0.00000000	     -6.84690502	    -11.06790396	     -4.50792573	     44.04346962	     46.17490271	      0.00000000	      0.00000000
     33.72414286	     -6.94865651	     -5.62851131	      1.77383667	      0.83475268	      0.91295396	      0.41990872	     -1.16819832	      1.23587859	    -10.72889567	     21.20860872	     21.20860872	     17.15396087	      5.64989821	     -9.36176531	     30.96078648	     -5.84118423	      4.57249637	     31.00668657	     31.00668657	      9.43310874	    -16.32547533	      7.98591430	     -9.60487440	      2.83745206	      4.73965286	     43.18811244	    -10.78390290	      3.09475692	     99.02730362	     44.55980474	      0.00000000	      0.00000000	     -6.87721043	    -11.43808007	     -4.84316928	     45.80797616	     46.24746578	      0.00000000	      0.00000000
     33.74135714	     -7.04775214	     -5.71991929	      1.48663526	      0.83719879	      0.91374324	      0.41690998	     -1.29575142	      0.97167909	    -10.62784562	     21.60396103	     21.60396103	     16.66903485	      5.95271604	     -9.43487384	     30.48245983	     -5.83570901	      4.40054408	     31.05826605	     31.05826605	      9.84404635	    -16.51030318	      7.90961695	     -9.61031417	      3.04471971	      4.92745417	     42.19448091	    -10.92393376	      3.22384218	     98.12707554	     44.58206989	      0.00000000	      0.00000000	     -6.22940467	    -11.81529225	     -4.97889605	     46.28941428	     46.27352580	      0.00000000	      0.00000000
     33.75857143	     -7.28466124	     -5.54813398	      1.12979306	      0.83946272	      0.91439954	      0.41367676	     -1.09832801	      0.26307236	    -10.87693191	     22.31478134	     22.31478134	     16.11216303	      6.78138435	    -10.17569992	     30.03444399	     -5.59323710	      3.95619279	     30.93828637	     30.93828637	     10.27992676	    -16.54702247	      8.00642364	     -9.33419405	      2.91832539	      5.66050607	     41.37085080	    -12.04602289	      2.92462099	     95.05178822	     44.69203778	      0.00000000	      0.00000000	     -5.62359019	    -11.98276330	     -5.03993691	     47.67240123	     46.30356280	      0.00000000	      0.00000000
     33.77578571	     -7.44378381	     -5.47997501	      0.84215229	      0.84154514	      0.91505083	      0.41043393	     -0.84440061	     -0.31778541	    -11.01734791	     23.22216319	     23.22216319	     15.35078074	      7.26939969	    -11.35467294	     29.55497006	     -5.41510998	      3.67766440	     30.85579755	     30.85579755	     10.77764843	    -16.56544475	      8.16221282	     -9.23219553	      2.96500018	      5.71551693	     40.72149183	    -12.21655257	      2.82611145	     91.79532373	     44.80332396	      0.00000000	      0.00000000	     -5.40947140	    -12.41642406	     -4.92536419	     49.10613144	     46.31698241	      0.00000000	      0.00000000
     33.79300000	     -7.56400355	     -5.38033223	      0.57887316	      0.84350028	      0.91569362	      0.40723245	     -0.47652246	     -0.88452632	    -10.90801505	     24.35509368	     24.35509368	     14.47314754	      7.18741772	    -12.58219648	     29.03809029	     -5.21607003	      3.32333276	     30.74971255	     30.74971255	     11.26558870	    -16.53580620	      8.25258459	     -9.16642637	      2.97676759	      5.66666556	     39.86162887	    -12.37935921	      2.78544607	     88.63866870	     44.90743219	      0.00000000	      0.00000000	     -5.15238373	    -12.80508832	     -4.82573189	     50.32705267	     46.33076822	      0.00000000	      0.00000000
     33.81021429	     -7.59388143	     -5.38926490	      0.38920196	      0.84541291	      0.91637818	      0.40401110	     -0.20442914	     -1.26510066	    -10.68408023	     25.34159974	     25.34159974	     12.61958413	      6.36948821	    -16.19504298	     28.49313912	     -5.08371617	      3.12630661	     30.74623133	     30.74623133	     11.90928748	    -16.48828965	      8.61192060	     -9.13826042	      3.14922303	      4.52703966	     39.99083913	    -11.22555812	      2.92831925	     82.81670555	     45.10177862	      0.00000000	      0.00000000	     -5.82805938	    -13.54314866	     -4.40082900	     52.21133461	     46.33513724	      0.00000000	      0.00000000
     33.82742857	     -7.65643128	     -5.30173842	      0.15453245	      0.84712882	      0.91691627	      0.40083504	      0.47627090	     -1.78049541	    -10.28666270	     27.02212383	     27.02212383	     11.17244177	      5.25009071	    -18.50659893	     27.95488238	     -4.88415742	      2.80101476	     30.66985236	     30.66985236	     12.42062087	    -16.41643077	      8.65683433	     -9.16430992	      3.21198063	      4.39981032	     39.04913137	    -11.47255879	      2.92550939	     79.08541797	     45.22445555	      0.00000000	      0.00000000	     -5.43340674	    -13.79165871	     -4.66883953	     53.01298065	     46.39963814	      0.00000000	      0.00000000
     33.84464286	     -7.68924911	     -5.10685589	     -0.08340937	      0.84870150	      0.91728482	      0.39762207	      1.48821530	     -2.49986139	     -9.95517890	     29.42452298	     29.42452298	     10.23023892	      4.35955759	    -19.19783873	     27.38456022	     -4.57340386	      2.40706030	     30.57395327	     30.57395327	     12.85330483	    -16.37577647	      8.54245354	     -9.28931894	      3.16574312	      4.56996202	     37.40230201	    -12.17959017	      2.76348241	     76.79616171	     45.29860747	      0.00000000	      0.00000000	     -4.67972770	    -13.98252595	     -4.77201642	     53.45079290	     46.42553222	      0.00000000	      0.00000000
     33.86185714	     -7.74095247	     -4.99105794	     -0.33145727	      0.85009525	      0.91741487	      0.39454992	      2.74973570	     -3.06507957	     -9.40636809	     32.15086834	     32.15086834	      8.96975809	      2.83080375	    -20.08327913	     26.91517602	     -4.32433385	      2.13423498	     30.59353678	     30.59353678	     13.32007454	    -16.44210425	      8.45697805	     -9.34702406	      3.22480540	      4.75060388	     35.87267635	    -12.77442983	      2.36730284	     73.42943062	     45.41651707	      0.00000000	      0.00000000	     -3.85018658	    -14.14838902	     -4.63783606	     53.68596397	     46.43014570	      0.00000000	      0.00000000
     33.87907143	     -7.70763553	     -4.86355983	     -0.53457248	      0.85137743	      0.91735105	      0.39153692	      4.12301046	     -3.59005776	     -8.79035231	     35.19253073	     35.19253073	      7.48169814	      0.82919221	    -20.93650770	     26.44422684	     -4.04413352	      1.90770380	     30.74566852	     30.74566852	     13.82145732	    -16.56382631	      8.39142557	     -9.47330283	      3.30592470	      4.74439099	     34.34368337	    -13.12186461	      1.91374989	     69.70053618	     45.54861753	      0.00000000	      0.00000000	     -2.99725041	    -14.36624926	     -4.34292181	     53.64023012	     46.41790366	      0.00000000	      0.00000000
     33.89628571	     -7.68852621	     -4.81606390	     -0.76627754	      0.85254283	      0.91701062	      0.38872043	      5.70068609	     -3.93246007	     -8.02160843	     38.47514898	     38.47514898	      5.72190057	     -1.70483006	    -21.66981517	     26.05404284	     -3.83651576	      1.80838959	     31.00831455	     31.00831455	     14.39727900	    -16.74259529	      8.39741876	     -9.53706047	      3.45979457	      4.67094472	     32.94484517	    -13.29804578	      1.31178168	     65.21167782	     45.71221000	      0.00000000	      0.00000000	     -2.07538312	    -14.54611841	     -3.79639851	     53.23359032	     46.38198591	      0.00000000	      0.00000000
     33.91350000	     -7.46733004	     -4.86965199	     -0.91109914	      0.85371726	      0.91669449	      0.38602585	      7.06853928	     -4.08453552	     -7.37623438	     41.67616331	     41.67616331	      3.40947023	     -4.92991711	    -23.06684142	     25.58492409	     -3.70720776	      1.81629613	     31.52132640	     31.52132640	     15.33116932	    -16.85048185	      9.07256687	     -9.69228346	      3.84342424	      3.78143479	     33.17893784	    -11.88472167	     -0.46992064	     56.18183738	     46.06526645	      0.00000000	      0.00000000	     -1.05546876	    -15.17297947	     -1.86769376	     51.16884539	     46.23595658	      0.00000000	      0.00000000
     33.93071429	     -7.36035046	     -4.67850993	     -1.15444682	      0.85460081	      0.91561501	      0.38338491	      8.93569697	     -4.62479237	     -6.89695148	     45.52942062	     45.52942062	      1.76449689	     -7.30171607	    -22.52077411	     25.28519329	     -3.33840203	      1.69038807	     32.08926950	     32.08926950	     15.92558181	    -17.21477334	      8.93561353	     -9.98946942	      3.86540507	      3.72645861	     31.01143616	    -12.46849116	     -0.67328228	     53.81586734	     46.14050840	      0.00000000	      0.00000000	     -0.18711120	    -15.23694580	     -1.80209166	     51.24125851	     46.24513850	      0.00000000	      0.00000000
